<?xml version="1.0" encoding="utf-8" standalone="no"?>
<!DOCTYPE svg PUBLIC "-//W3C//DTD SVG 1.1//EN"
  "http://www.w3.org/Graphics/SVG/1.1/DTD/svg11.dtd">
<svg xmlns:xlink="http://www.w3.org/1999/xlink" width="576pt" height="576pt" viewBox="0 0 576 576" xmlns="http://www.w3.org/2000/svg" version="1.1">
 <metadata>
  <rdf:RDF xmlns:dc="http://purl.org/dc/elements/1.1/" xmlns:cc="http://creativecommons.org/ns#" xmlns:rdf="http://www.w3.org/1999/02/22-rdf-syntax-ns#">
   <cc:Work>
    <dc:type rdf:resource="http://purl.org/dc/dcmitype/StillImage"/>
    <dc:date>2024-12-09T23:30:55.699912</dc:date>
    <dc:format>image/svg+xml</dc:format>
    <dc:creator>
     <cc:Agent>
      <dc:title>Matplotlib v3.9.2, https://matplotlib.org/</dc:title>
     </cc:Agent>
    </dc:creator>
   </cc:Work>
  </rdf:RDF>
 </metadata>
 <defs>
  <style type="text/css">*{stroke-linejoin: round; stroke-linecap: butt}</style>
 </defs>
 <g id="figure_1">
  <g id="patch_1">
   <path d="M 0 576 
L 576 576 
L 576 0 
L 0 0 
L 0 576 
z
" style="fill: none"/>
  </g>
  <g id="axes_1">
   <g id="line2d_1">
    <path d="M 498.109091 290.88 
L 498.007959 284.51578 
L 497.704663 278.157905 
L 497.199507 271.812711 
L 496.492993 265.486523 
L 495.585825 259.185649 
L 494.478909 252.916368 
L 493.173348 246.68493 
L 491.670442 240.497547 
L 489.97169 234.360386 
L 488.078785 228.279565 
L 485.993615 222.261145 
L 483.718257 216.311126 
L 481.254981 210.43544 
L 478.60624 204.639942 
L 475.774677 198.93041 
L 472.763112 193.312535 
L 469.574549 187.791917 
L 466.212165 182.374061 
L 462.679313 177.064365 
L 458.979514 171.868123 
L 455.116456 166.790515 
L 451.09399 161.836601 
L 446.916125 157.011322 
L 442.587026 152.319485 
L 438.111008 147.765768 
L 433.492534 143.354711 
L 428.736207 139.09071 
L 423.846768 134.978016 
L 418.829091 131.020729 
L 413.688178 127.222793 
L 408.429153 123.587994 
L 403.057259 120.119955 
L 397.577851 116.822133 
L 391.99639 113.697816 
L 386.31844 110.750119 
L 380.549662 107.981978 
L 374.695805 105.396155 
L 368.762705 102.995225 
L 362.756276 100.781583 
L 356.682506 98.757436 
L 350.547448 96.9248 
L 344.357219 95.285504 
L 338.117989 93.84118 
L 331.835977 92.593268 
L 325.517446 91.543014 
L 319.168694 90.691462 
L 312.796049 90.039463 
L 306.405864 89.587666 
L 300.004509 89.336522 
L 293.598364 89.28628 
L 287.193816 89.436992 
L 280.797249 89.788506 
L 274.415039 90.340473 
L 268.053548 91.092342 
L 261.719116 92.043364 
L 255.41806 93.19259 
L 249.156659 94.538875 
L 242.941154 96.080878 
L 236.777743 97.817061 
L 230.672568 99.745692 
L 224.631716 101.864851 
L 218.661207 104.172424 
L 212.766994 106.666111 
L 206.954953 109.343427 
L 201.230875 112.201702 
L 195.600468 115.238088 
L 190.069344 118.449557 
L 184.643017 121.832909 
L 179.326895 125.384771 
L 174.126278 129.101602 
L 169.04635 132.979697 
L 164.092175 137.01519 
L 159.268691 141.20406 
L 154.580706 145.542129 
L 150.032893 150.025075 
L 145.629787 154.648427 
L 141.375775 159.407579 
L 137.275098 164.297785 
L 133.331844 169.31417 
L 129.549945 174.451736 
L 125.933168 179.705359 
L 122.485121 185.069804 
L 119.209239 190.539723 
L 116.108789 196.109663 
L 113.186861 201.774072 
L 110.446367 207.527304 
L 107.89004 213.363624 
L 105.520428 219.277213 
L 103.339892 225.262178 
L 101.350607 231.312553 
L 99.554555 237.422305 
L 97.953526 243.585345 
L 96.549118 249.79553 
L 95.342728 256.046668 
L 94.335561 262.332529 
L 93.52862 268.646847 
L 92.922709 274.983327 
L 92.518433 281.335653 
L 92.316194 287.697494 
L 92.316194 294.062506 
L 92.518433 300.424347 
L 92.922709 306.776673 
L 93.52862 313.113153 
L 94.335561 319.427471 
L 95.342728 325.713332 
L 96.549118 331.96447 
L 97.953526 338.174655 
L 99.554555 344.337695 
L 101.350607 350.447447 
L 103.339892 356.497822 
L 105.520428 362.482787 
L 107.89004 368.396376 
L 110.446367 374.232696 
L 113.186861 379.985928 
L 116.108789 385.650337 
L 119.209239 391.220277 
L 122.485121 396.690196 
L 125.933168 402.054641 
L 129.549945 407.308264 
L 133.331844 412.44583 
L 137.275098 417.462215 
L 141.375775 422.352421 
L 145.629787 427.111573 
L 150.032893 431.734925 
L 154.580706 436.217871 
L 159.268691 440.55594 
L 164.092175 444.74481 
L 169.04635 448.780303 
L 174.126278 452.658398 
L 179.326895 456.375229 
L 184.643017 459.927091 
L 190.069344 463.310443 
L 195.600468 466.521912 
L 201.230875 469.558298 
L 206.954953 472.416573 
L 212.766994 475.093889 
L 218.661207 477.587576 
L 224.631716 479.895149 
L 230.672568 482.014308 
L 236.777743 483.942939 
L 242.941154 485.679122 
L 249.156659 487.221125 
L 255.41806 488.56741 
L 261.719116 489.716636 
L 268.053548 490.667658 
L 274.415039 491.419527 
L 280.797249 491.971494 
L 287.193816 492.323008 
L 293.598364 492.47372 
L 300.004509 492.423478 
L 306.405864 492.172334 
L 312.796049 491.720537 
L 319.168694 491.068538 
L 325.517446 490.216986 
L 331.835977 489.166732 
L 338.117989 487.91882 
L 344.357219 486.474496 
L 350.547448 484.8352 
L 356.682506 483.002564 
L 362.756276 480.978417 
L 368.762705 478.764775 
L 374.695805 476.363845 
L 380.549662 473.778022 
L 386.31844 471.009881 
L 391.99639 468.062184 
L 397.577851 464.937867 
L 403.057259 461.640045 
L 408.429153 458.172006 
L 413.688178 454.537207 
L 418.829091 450.739271 
L 423.846768 446.781984 
L 428.736207 442.66929 
L 433.492534 438.405289 
L 438.111008 433.994232 
L 442.587026 429.440515 
L 446.916125 424.748678 
L 451.09399 419.923399 
L 455.116456 414.969485 
L 458.979514 409.891877 
L 462.679313 404.695635 
L 466.212165 399.385939 
L 469.574549 393.968083 
L 472.763112 388.447465 
L 475.774677 382.82959 
L 478.60624 377.120058 
L 481.254981 371.32456 
L 483.718257 365.448874 
L 485.993615 359.498855 
L 488.078785 353.480435 
L 489.97169 347.399614 
L 491.670442 341.262453 
L 493.173348 335.07507 
L 494.478909 328.843632 
L 495.585825 322.574351 
L 496.492993 316.273477 
L 497.199507 309.947289 
L 497.704663 303.602095 
L 498.007959 297.24422 
L 498.109091 290.88 
L 498.109091 290.88 
" clip-path="url(#pf4944e09cd)" style="fill: none; stroke: #ff0000; stroke-width: 5; stroke-linecap: square"/>
   </g>
   <g id="line2d_2">
    <path d="M 151.721607 148.327272 
L 208.189849 204.431205 
" clip-path="url(#pf4944e09cd)" style="fill: none; stroke: #000000; stroke-width: 3; stroke-linecap: square"/>
   </g>
   <g id="line2d_3">
    <path d="M 295.2 89.28 
L 295.2 192.760236 
" clip-path="url(#pf4944e09cd)" style="fill: none; stroke: #000000; stroke-width: 3; stroke-linecap: square"/>
   </g>
   <g id="line2d_4">
    <path d="M 438.678393 148.327272 
L 382.210151 204.431205 
" clip-path="url(#pf4944e09cd)" style="fill: none; stroke: #000000; stroke-width: 3; stroke-linecap: square"/>
   </g>
   <g id="line2d_5">
    <path d="M 151.721605 148.327274 
L 208.189849 204.431205 
" clip-path="url(#pf4944e09cd)" style="fill: none; stroke: #000000; stroke-width: 3; stroke-linecap: square"/>
   </g>
   <g id="line2d_6">
    <path d="M 208.189849 204.431205 
L 295.2 192.760236 
" clip-path="url(#pf4944e09cd)" style="fill: none; stroke: #000000; stroke-width: 3; stroke-linecap: square"/>
   </g>
   <g id="line2d_7">
    <path d="M 208.189849 204.431205 
L 196.443094 290.88 
" clip-path="url(#pf4944e09cd)" style="fill: none; stroke: #000000; stroke-width: 3; stroke-linecap: square"/>
   </g>
   <g id="line2d_8">
    <path d="M 295.2 192.760236 
L 382.210151 204.431205 
" clip-path="url(#pf4944e09cd)" style="fill: none; stroke: #000000; stroke-width: 3; stroke-linecap: square"/>
   </g>
   <g id="line2d_9">
    <path d="M 295.2 192.760236 
L 295.2 290.88 
" clip-path="url(#pf4944e09cd)" style="fill: none; stroke: #000000; stroke-width: 3; stroke-linecap: square"/>
   </g>
   <g id="line2d_10">
    <path d="M 382.210151 204.431205 
L 438.678395 148.327274 
" clip-path="url(#pf4944e09cd)" style="fill: none; stroke: #000000; stroke-width: 3; stroke-linecap: square"/>
   </g>
   <g id="line2d_11">
    <path d="M 382.210151 204.431205 
L 393.956906 290.88 
" clip-path="url(#pf4944e09cd)" style="fill: none; stroke: #000000; stroke-width: 3; stroke-linecap: square"/>
   </g>
   <g id="line2d_12">
    <path d="M 92.290909 290.88 
L 196.443094 290.88 
" clip-path="url(#pf4944e09cd)" style="fill: none; stroke: #000000; stroke-width: 3; stroke-linecap: square"/>
   </g>
   <g id="line2d_13">
    <path d="M 196.443094 290.88 
L 295.2 290.88 
" clip-path="url(#pf4944e09cd)" style="fill: none; stroke: #000000; stroke-width: 3; stroke-linecap: square"/>
   </g>
   <g id="line2d_14">
    <path d="M 196.443094 290.88 
L 208.189849 377.328795 
" clip-path="url(#pf4944e09cd)" style="fill: none; stroke: #000000; stroke-width: 3; stroke-linecap: square"/>
   </g>
   <g id="line2d_15">
    <path d="M 295.2 290.88 
L 393.956906 290.88 
" clip-path="url(#pf4944e09cd)" style="fill: none; stroke: #000000; stroke-width: 3; stroke-linecap: square"/>
   </g>
   <g id="line2d_16">
    <path d="M 295.2 290.88 
L 295.2 388.999764 
" clip-path="url(#pf4944e09cd)" style="fill: none; stroke: #000000; stroke-width: 3; stroke-linecap: square"/>
   </g>
   <g id="line2d_17">
    <path d="M 393.956906 290.88 
L 498.109091 290.88 
" clip-path="url(#pf4944e09cd)" style="fill: none; stroke: #000000; stroke-width: 3; stroke-linecap: square"/>
   </g>
   <g id="line2d_18">
    <path d="M 393.956906 290.88 
L 382.210151 377.328795 
" clip-path="url(#pf4944e09cd)" style="fill: none; stroke: #000000; stroke-width: 3; stroke-linecap: square"/>
   </g>
   <g id="line2d_19">
    <path d="M 151.721605 433.432726 
L 208.189849 377.328795 
" clip-path="url(#pf4944e09cd)" style="fill: none; stroke: #000000; stroke-width: 3; stroke-linecap: square"/>
   </g>
   <g id="line2d_20">
    <path d="M 208.189849 377.328795 
L 295.2 388.999764 
" clip-path="url(#pf4944e09cd)" style="fill: none; stroke: #000000; stroke-width: 3; stroke-linecap: square"/>
   </g>
   <g id="line2d_21">
    <path d="M 208.189849 377.328795 
L 151.721607 433.432728 
" clip-path="url(#pf4944e09cd)" style="fill: none; stroke: #000000; stroke-width: 3; stroke-linecap: square"/>
   </g>
   <g id="line2d_22">
    <path d="M 295.2 388.999764 
L 382.210151 377.328795 
" clip-path="url(#pf4944e09cd)" style="fill: none; stroke: #000000; stroke-width: 3; stroke-linecap: square"/>
   </g>
   <g id="line2d_23">
    <path d="M 295.2 388.999764 
L 295.2 492.48 
" clip-path="url(#pf4944e09cd)" style="fill: none; stroke: #000000; stroke-width: 3; stroke-linecap: square"/>
   </g>
   <g id="line2d_24">
    <path d="M 382.210151 377.328795 
L 438.678395 433.432726 
" clip-path="url(#pf4944e09cd)" style="fill: none; stroke: #000000; stroke-width: 3; stroke-linecap: square"/>
   </g>
   <g id="line2d_25">
    <path d="M 382.210151 377.328795 
L 438.678393 433.432728 
" clip-path="url(#pf4944e09cd)" style="fill: none; stroke: #000000; stroke-width: 3; stroke-linecap: square"/>
   </g>
   <g id="PathCollection_1">
    <defs>
     <path id="m70e58edb56" d="M 0 8.660254 
C 2.296726 8.660254 4.499694 7.747755 6.123724 6.123724 
C 7.747755 4.499694 8.660254 2.296726 8.660254 0 
C 8.660254 -2.296726 7.747755 -4.499694 6.123724 -6.123724 
C 4.499694 -7.747755 2.296726 -8.660254 0 -8.660254 
C -2.296726 -8.660254 -4.499694 -7.747755 -6.123724 -6.123724 
C -7.747755 -4.499694 -8.660254 -2.296726 -8.660254 0 
C -8.660254 2.296726 -7.747755 4.499694 -6.123724 6.123724 
C -4.499694 7.747755 -2.296726 8.660254 0 8.660254 
z
" style="stroke: #dc143c"/>
    </defs>
    <g clip-path="url(#pf4944e09cd)">
     <use xlink:href="#m70e58edb56" x="151.721607" y="148.327272" style="fill: #dc143c; stroke: #dc143c"/>
     <use xlink:href="#m70e58edb56" x="151.721605" y="148.327274" style="fill: #dc143c; stroke: #dc143c"/>
     <use xlink:href="#m70e58edb56" x="92.290909" y="290.88" style="fill: #dc143c; stroke: #dc143c"/>
     <use xlink:href="#m70e58edb56" x="151.721605" y="433.432726" style="fill: #dc143c; stroke: #dc143c"/>
     <use xlink:href="#m70e58edb56" x="151.721607" y="433.432728" style="fill: #dc143c; stroke: #dc143c"/>
     <use xlink:href="#m70e58edb56" x="295.2" y="492.48" style="fill: #dc143c; stroke: #dc143c"/>
     <use xlink:href="#m70e58edb56" x="438.678393" y="433.432728" style="fill: #dc143c; stroke: #dc143c"/>
     <use xlink:href="#m70e58edb56" x="438.678395" y="433.432726" style="fill: #dc143c; stroke: #dc143c"/>
     <use xlink:href="#m70e58edb56" x="498.109091" y="290.88" style="fill: #dc143c; stroke: #dc143c"/>
     <use xlink:href="#m70e58edb56" x="438.678395" y="148.327274" style="fill: #dc143c; stroke: #dc143c"/>
     <use xlink:href="#m70e58edb56" x="438.678393" y="148.327272" style="fill: #dc143c; stroke: #dc143c"/>
     <use xlink:href="#m70e58edb56" x="295.2" y="89.28" style="fill: #dc143c; stroke: #dc143c"/>
    </g>
   </g>
   <g id="PathCollection_2">
    <defs>
     <path id="mc6309be87d" d="M 0 8.660254 
C 2.296726 8.660254 4.499694 7.747755 6.123724 6.123724 
C 7.747755 4.499694 8.660254 2.296726 8.660254 0 
C 8.660254 -2.296726 7.747755 -4.499694 6.123724 -6.123724 
C 4.499694 -7.747755 2.296726 -8.660254 0 -8.660254 
C -2.296726 -8.660254 -4.499694 -7.747755 -6.123724 -6.123724 
C -7.747755 -4.499694 -8.660254 -2.296726 -8.660254 0 
C -8.660254 2.296726 -7.747755 4.499694 -6.123724 6.123724 
C -4.499694 7.747755 -2.296726 8.660254 0 8.660254 
z
" style="stroke: #000000"/>
    </defs>
    <g clip-path="url(#pf4944e09cd)">
     <use xlink:href="#mc6309be87d" x="208.189849" y="204.431205" style="stroke: #000000"/>
     <use xlink:href="#mc6309be87d" x="295.2" y="192.760236" style="stroke: #000000"/>
     <use xlink:href="#mc6309be87d" x="382.210151" y="204.431205" style="stroke: #000000"/>
     <use xlink:href="#mc6309be87d" x="196.443094" y="290.88" style="stroke: #000000"/>
     <use xlink:href="#mc6309be87d" x="295.2" y="290.88" style="stroke: #000000"/>
     <use xlink:href="#mc6309be87d" x="393.956906" y="290.88" style="stroke: #000000"/>
     <use xlink:href="#mc6309be87d" x="208.189849" y="377.328795" style="stroke: #000000"/>
     <use xlink:href="#mc6309be87d" x="295.2" y="388.999764" style="stroke: #000000"/>
     <use xlink:href="#mc6309be87d" x="382.210151" y="377.328795" style="stroke: #000000"/>
    </g>
   </g>
   <g id="text_1">
    <!-- 0 -->
    <g transform="translate(158.485243 141.607272) scale(0.2 -0.2)">
     <defs>
      <path id="CMR17-30" d="M 2688 2025 
C 2688 2416 2682 3080 2413 3591 
C 2176 4039 1798 4198 1466 4198 
C 1158 4198 768 4058 525 3597 
C 269 3118 243 2524 243 2025 
C 243 1661 250 1106 448 619 
C 723 -39 1216 -128 1466 -128 
C 1760 -128 2208 -7 2470 600 
C 2662 1042 2688 1559 2688 2025 
z
M 1466 -26 
C 1056 -26 813 325 723 812 
C 653 1188 653 1738 653 2096 
C 653 2588 653 2997 736 3387 
C 858 3929 1216 4096 1466 4096 
C 1728 4096 2067 3923 2189 3400 
C 2272 3036 2278 2607 2278 2096 
C 2278 1680 2278 1169 2202 792 
C 2067 95 1690 -26 1466 -26 
z
" transform="scale(0.015625)"/>
     </defs>
     <use xlink:href="#CMR17-30" transform="scale(0.996264)"/>
    </g>
   </g>
   <g id="text_2">
    <!-- 3 -->
    <g transform="translate(185.539787 141.607274) scale(0.2 -0.2)">
     <defs>
      <path id="CMR17-33" d="M 1414 2157 
C 1984 2157 2234 1662 2234 1090 
C 2234 320 1824 25 1453 25 
C 1114 25 563 194 390 693 
C 422 680 454 680 486 680 
C 640 680 755 782 755 948 
C 755 1133 614 1216 486 1216 
C 378 1216 211 1165 211 926 
C 211 335 787 -128 1466 -128 
C 2176 -128 2720 430 2720 1085 
C 2720 1707 2208 2157 1600 2227 
C 2086 2328 2554 2756 2554 3329 
C 2554 3820 2048 4179 1472 4179 
C 890 4179 378 3829 378 3329 
C 378 3110 544 3072 627 3072 
C 762 3072 877 3155 877 3321 
C 877 3486 762 3569 627 3569 
C 602 3569 570 3569 544 3557 
C 730 3959 1235 4032 1459 4032 
C 1683 4032 2106 3925 2106 3320 
C 2106 3143 2080 2828 1862 2550 
C 1670 2304 1453 2304 1242 2284 
C 1210 2284 1062 2269 1037 2269 
C 992 2263 966 2257 966 2208 
C 966 2163 973 2157 1101 2157 
L 1414 2157 
z
" transform="scale(0.015625)"/>
     </defs>
     <use xlink:href="#CMR17-33" transform="scale(0.996264)"/>
    </g>
   </g>
   <g id="text_3">
    <!-- 8 -->
    <g transform="translate(99.054545 284.16) scale(0.2 -0.2)">
     <defs>
      <path id="CMR17-38" d="M 1741 2264 
C 2144 2467 2554 2773 2554 3263 
C 2554 3841 1990 4179 1472 4179 
C 890 4179 378 3759 378 3180 
C 378 3021 416 2747 666 2505 
C 730 2442 998 2251 1171 2130 
C 883 1983 211 1634 211 934 
C 211 279 838 -128 1459 -128 
C 2144 -128 2720 362 2720 1010 
C 2720 1590 2330 1857 2074 2029 
L 1741 2264 
z
M 902 2822 
C 851 2854 595 3051 595 3351 
C 595 3739 998 4032 1459 4032 
C 1965 4032 2336 3676 2336 3262 
C 2336 2669 1670 2331 1638 2331 
C 1632 2331 1626 2331 1574 2370 
L 902 2822 
z
M 2080 1519 
C 2176 1449 2483 1240 2483 851 
C 2483 381 2010 25 1472 25 
C 890 25 448 438 448 940 
C 448 1443 838 1862 1280 2060 
L 2080 1519 
z
" transform="scale(0.015625)"/>
     </defs>
     <use xlink:href="#CMR17-38" transform="scale(0.996264)"/>
    </g>
   </g>
   <g id="text_4">
    <!-- 13 -->
    <g transform="translate(158.485241 426.712726) scale(0.2 -0.2)">
     <defs>
      <path id="CMR17-31" d="M 1702 4058 
C 1702 4192 1696 4192 1606 4192 
C 1357 3916 979 3827 621 3827 
C 602 3827 570 3827 563 3808 
C 557 3795 557 3782 557 3648 
C 755 3648 1088 3686 1344 3839 
L 1344 461 
C 1344 236 1331 160 781 160 
L 589 160 
L 589 0 
C 896 0 1216 0 1523 0 
C 1830 0 2150 0 2458 0 
L 2458 160 
L 2266 160 
C 1715 160 1702 230 1702 458 
L 1702 4058 
z
" transform="scale(0.015625)"/>
     </defs>
     <use xlink:href="#CMR17-31" transform="scale(0.996264)"/>
     <use xlink:href="#CMR17-33" transform="translate(45.690477 0) scale(0.996264)"/>
    </g>
   </g>
   <g id="text_5">
    <!-- 18 -->
    <g transform="translate(185.539789 426.712728) scale(0.2 -0.2)">
     <use xlink:href="#CMR17-31" transform="scale(0.996264)"/>
     <use xlink:href="#CMR17-38" transform="translate(45.690477 0) scale(0.996264)"/>
    </g>
   </g>
   <g id="text_6">
    <!-- 19 -->
    <g transform="translate(301.963636 485.76) scale(0.2 -0.2)">
     <defs>
      <path id="CMR17-39" d="M 2253 1864 
C 2253 464 1670 31 1190 31 
C 1043 31 685 31 538 294 
C 704 268 826 357 826 518 
C 826 692 685 749 595 749 
C 538 749 365 723 365 506 
C 365 71 742 -128 1203 -128 
C 1939 -128 2688 674 2688 2073 
C 2688 3817 1971 4179 1485 4179 
C 851 4179 243 3628 243 2778 
C 243 1991 762 1408 1414 1408 
C 1952 1408 2189 1903 2253 2112 
L 2253 1864 
z
M 1427 1510 
C 1254 1510 1011 1542 813 1922 
C 678 2169 678 2461 678 2771 
C 678 3146 678 3405 858 3684 
C 947 3817 1114 4032 1485 4032 
C 2240 4032 2240 2885 2240 2632 
C 2240 2182 2035 1510 1427 1510 
z
" transform="scale(0.015625)"/>
     </defs>
     <use xlink:href="#CMR17-31" transform="scale(0.996264)"/>
     <use xlink:href="#CMR17-39" transform="translate(45.690477 0) scale(0.996264)"/>
    </g>
   </g>
   <g id="text_7">
    <!-- 20 -->
    <g transform="translate(445.44203 426.712728) scale(0.2 -0.2)">
     <defs>
      <path id="CMR17-32" d="M 2669 989 
L 2554 989 
C 2490 536 2438 459 2413 420 
C 2381 369 1920 369 1830 369 
L 602 369 
C 832 619 1280 1072 1824 1597 
C 2214 1967 2669 2402 2669 3035 
C 2669 3790 2067 4224 1395 4224 
C 691 4224 262 3604 262 3030 
C 262 2780 448 2748 525 2748 
C 589 2748 781 2787 781 3010 
C 781 3207 614 3264 525 3264 
C 486 3264 448 3258 422 3245 
C 544 3790 915 4058 1306 4058 
C 1862 4058 2227 3617 2227 3035 
C 2227 2479 1901 2000 1536 1584 
L 262 146 
L 262 0 
L 2515 0 
L 2669 989 
z
" transform="scale(0.015625)"/>
     </defs>
     <use xlink:href="#CMR17-32" transform="scale(0.996264)"/>
     <use xlink:href="#CMR17-30" transform="translate(45.690477 0) scale(0.996264)"/>
    </g>
   </g>
   <g id="text_8">
    <!-- 17 -->
    <g transform="translate(472.496577 426.712726) scale(0.2 -0.2)">
     <defs>
      <path id="CMR17-37" d="M 2886 3941 
L 2886 4081 
L 1382 4081 
C 634 4081 621 4165 595 4288 
L 480 4288 
L 294 3094 
L 410 3094 
C 429 3215 474 3540 550 3661 
C 589 3712 1062 3712 1171 3712 
L 2579 3712 
L 1869 2661 
C 1395 1954 1069 999 1069 165 
C 1069 89 1069 -128 1299 -128 
C 1530 -128 1530 89 1530 171 
L 1530 465 
C 1530 1508 1709 2196 2003 2636 
L 2886 3941 
z
" transform="scale(0.015625)"/>
     </defs>
     <use xlink:href="#CMR17-31" transform="scale(0.996264)"/>
     <use xlink:href="#CMR17-37" transform="translate(45.690477 0) scale(0.996264)"/>
    </g>
   </g>
   <g id="text_9">
    <!-- 12 -->
    <g transform="translate(504.872727 284.16) scale(0.2 -0.2)">
     <use xlink:href="#CMR17-31" transform="scale(0.996264)"/>
     <use xlink:href="#CMR17-32" transform="translate(45.690477 0) scale(0.996264)"/>
    </g>
   </g>
   <g id="text_10">
    <!-- 7 -->
    <g transform="translate(445.442031 141.607274) scale(0.2 -0.2)">
     <use xlink:href="#CMR17-37" transform="scale(0.996264)"/>
    </g>
   </g>
   <g id="text_11">
    <!-- 2 -->
    <g transform="translate(472.496575 141.607272) scale(0.2 -0.2)">
     <use xlink:href="#CMR17-32" transform="scale(0.996264)"/>
    </g>
   </g>
   <g id="text_12">
    <!-- 1 -->
    <g transform="translate(301.963636 82.56) scale(0.2 -0.2)">
     <use xlink:href="#CMR17-31" transform="scale(0.996264)"/>
    </g>
   </g>
   <g id="text_13">
    <!-- 4 -->
    <g transform="translate(214.953486 197.711205) scale(0.2 -0.2)">
     <defs>
      <path id="CMR17-34" d="M 2150 4122 
C 2150 4256 2144 4256 2029 4256 
L 128 1254 
L 128 1088 
L 1779 1088 
L 1779 457 
C 1779 224 1766 160 1318 160 
L 1197 160 
L 1197 0 
C 1402 0 1747 0 1965 0 
C 2182 0 2528 0 2733 0 
L 2733 160 
L 2611 160 
C 2163 160 2150 224 2150 457 
L 2150 1088 
L 2803 1088 
L 2803 1254 
L 2150 1254 
L 2150 4122 
z
M 1798 3703 
L 1798 1254 
L 256 1254 
L 1798 3703 
z
" transform="scale(0.015625)"/>
     </defs>
     <use xlink:href="#CMR17-34" transform="scale(0.996264)"/>
    </g>
   </g>
   <g id="text_14">
    <!-- 5 -->
    <g transform="translate(301.963636 186.040236) scale(0.2 -0.2)">
     <defs>
      <path id="CMR17-35" d="M 730 3692 
C 794 3666 1056 3584 1325 3584 
C 1920 3584 2246 3911 2432 4100 
C 2432 4157 2432 4192 2394 4192 
C 2387 4192 2374 4192 2323 4163 
C 2099 4058 1837 3973 1517 3973 
C 1325 3973 1037 3999 723 4139 
C 653 4171 640 4171 634 4171 
C 602 4171 595 4164 595 4037 
L 595 2203 
C 595 2089 595 2057 659 2057 
C 691 2057 704 2070 736 2114 
C 941 2401 1222 2522 1542 2522 
C 1766 2522 2246 2382 2246 1289 
C 2246 1085 2246 715 2054 421 
C 1894 159 1645 25 1370 25 
C 947 25 518 320 403 814 
C 429 807 480 795 506 795 
C 589 795 749 840 749 1038 
C 749 1210 627 1280 506 1280 
C 358 1280 262 1190 262 1011 
C 262 454 704 -128 1382 -128 
C 2042 -128 2669 440 2669 1264 
C 2669 2030 2170 2624 1549 2624 
C 1222 2624 947 2503 730 2274 
L 730 3692 
z
" transform="scale(0.015625)"/>
     </defs>
     <use xlink:href="#CMR17-35" transform="scale(0.996264)"/>
    </g>
   </g>
   <g id="text_15">
    <!-- 6 -->
    <g transform="translate(388.973787 197.711205) scale(0.2 -0.2)">
     <defs>
      <path id="CMR17-36" d="M 678 2176 
C 678 3690 1395 4032 1811 4032 
C 1946 4032 2272 4009 2400 3776 
C 2298 3776 2106 3776 2106 3553 
C 2106 3381 2246 3323 2336 3323 
C 2394 3323 2566 3348 2566 3560 
C 2566 3954 2246 4179 1805 4179 
C 1043 4179 243 3390 243 1984 
C 243 253 966 -128 1478 -128 
C 2099 -128 2688 427 2688 1283 
C 2688 2081 2170 2662 1517 2662 
C 1126 2662 838 2407 678 1960 
L 678 2176 
z
M 1478 25 
C 691 25 691 1200 691 1436 
C 691 1896 909 2560 1504 2560 
C 1613 2560 1926 2560 2138 2120 
C 2253 1870 2253 1609 2253 1289 
C 2253 944 2253 690 2118 434 
C 1978 171 1773 25 1478 25 
z
" transform="scale(0.015625)"/>
     </defs>
     <use xlink:href="#CMR17-36" transform="scale(0.996264)"/>
    </g>
   </g>
   <g id="text_16">
    <!-- 9 -->
    <g transform="translate(203.206731 284.16) scale(0.2 -0.2)">
     <use xlink:href="#CMR17-39" transform="scale(0.996264)"/>
    </g>
   </g>
   <g id="text_17">
    <!-- 10 -->
    <g transform="translate(301.963636 284.16) scale(0.2 -0.2)">
     <use xlink:href="#CMR17-31" transform="scale(0.996264)"/>
     <use xlink:href="#CMR17-30" transform="translate(45.690477 0) scale(0.996264)"/>
    </g>
   </g>
   <g id="text_18">
    <!-- 11 -->
    <g transform="translate(400.720542 284.16) scale(0.2 -0.2)">
     <use xlink:href="#CMR17-31" transform="scale(0.996264)"/>
     <use xlink:href="#CMR17-31" transform="translate(45.690477 0) scale(0.996264)"/>
    </g>
   </g>
   <g id="text_19">
    <!-- 14 -->
    <g transform="translate(214.953486 370.608795) scale(0.2 -0.2)">
     <use xlink:href="#CMR17-31" transform="scale(0.996264)"/>
     <use xlink:href="#CMR17-34" transform="translate(45.690477 0) scale(0.996264)"/>
    </g>
   </g>
   <g id="text_20">
    <!-- 15 -->
    <g transform="translate(301.963636 382.279764) scale(0.2 -0.2)">
     <use xlink:href="#CMR17-31" transform="scale(0.996264)"/>
     <use xlink:href="#CMR17-35" transform="translate(45.690477 0) scale(0.996264)"/>
    </g>
   </g>
   <g id="text_21">
    <!-- 16 -->
    <g transform="translate(388.973787 370.608795) scale(0.2 -0.2)">
     <use xlink:href="#CMR17-31" transform="scale(0.996264)"/>
     <use xlink:href="#CMR17-36" transform="translate(45.690477 0) scale(0.996264)"/>
    </g>
   </g>
  </g>
 </g>
 <defs>
  <clipPath id="pf4944e09cd">
   <rect x="72" y="69.12" width="446.4" height="443.52"/>
  </clipPath>
 </defs>
</svg>
