<?xml version="1.0" encoding="utf-8" standalone="no"?>
<!DOCTYPE svg PUBLIC "-//W3C//DTD SVG 1.1//EN"
  "http://www.w3.org/Graphics/SVG/1.1/DTD/svg11.dtd">
<svg xmlns:xlink="http://www.w3.org/1999/xlink" width="576pt" height="576pt" viewBox="0 0 576 576" xmlns="http://www.w3.org/2000/svg" version="1.1">
 <metadata>
  <rdf:RDF xmlns:dc="http://purl.org/dc/elements/1.1/" xmlns:cc="http://creativecommons.org/ns#" xmlns:rdf="http://www.w3.org/1999/02/22-rdf-syntax-ns#">
   <cc:Work>
    <dc:type rdf:resource="http://purl.org/dc/dcmitype/StillImage"/>
    <dc:date>2024-12-09T23:30:57.384871</dc:date>
    <dc:format>image/svg+xml</dc:format>
    <dc:creator>
     <cc:Agent>
      <dc:title>Matplotlib v3.9.2, https://matplotlib.org/</dc:title>
     </cc:Agent>
    </dc:creator>
   </cc:Work>
  </rdf:RDF>
 </metadata>
 <defs>
  <style type="text/css">*{stroke-linejoin: round; stroke-linecap: butt}</style>
 </defs>
 <g id="figure_1">
  <g id="patch_1">
   <path d="M 0 576 
L 576 576 
L 576 0 
L 0 0 
L 0 576 
z
" style="fill: none"/>
  </g>
  <g id="axes_1">
   <g id="line2d_1">
    <path d="M 498.109091 290.880045 
L 498.007959 284.515817 
L 497.704663 278.157934 
L 497.199506 271.812732 
L 496.492991 265.486537 
L 495.585823 259.185655 
L 494.478906 252.916366 
L 493.173343 246.68492 
L 491.670436 240.497529 
L 489.971683 234.360361 
L 488.078777 228.279532 
L 485.993605 222.261105 
L 483.718245 216.311079 
L 481.254966 210.435385 
L 478.606224 204.63988 
L 475.774658 198.930341 
L 472.763091 193.312459 
L 469.574525 187.791835 
L 466.212139 182.373972 
L 462.679284 177.064269 
L 458.979481 171.868021 
L 455.11642 166.790406 
L 451.09395 161.836487 
L 446.916082 157.011201 
L 442.586979 152.319359 
L 438.110958 147.765636 
L 433.49248 143.354574 
L 428.736149 139.090568 
L 423.846706 134.977869 
L 418.829025 131.020577 
L 413.688107 127.222636 
L 408.429078 123.587832 
L 403.05718 120.119789 
L 397.577767 116.821963 
L 391.996301 113.697643 
L 386.318347 110.749941 
L 380.549564 107.981797 
L 374.695702 105.39597 
L 368.762597 102.995038 
L 362.756163 100.781394 
L 356.682387 98.757244 
L 350.547325 96.924606 
L 344.35709 95.285307 
L 338.117855 93.840981 
L 331.835838 92.593068 
L 325.517302 91.542812 
L 319.168544 90.69126 
L 312.795894 90.03926 
L 306.405703 89.587463 
L 300.004343 89.336318 
L 293.598193 89.286076 
L 287.19364 89.436788 
L 280.797067 89.788303 
L 274.414852 90.340271 
L 268.053355 91.09214 
L 261.718919 92.043163 
L 255.417857 93.192391 
L 249.15645 94.538678 
L 242.940941 96.080682 
L 236.777525 97.816867 
L 230.672345 99.745501 
L 224.631487 101.864663 
L 218.660974 104.172238 
L 212.766756 106.665929 
L 206.954709 109.343248 
L 201.230627 112.201527 
L 195.600215 115.237916 
L 190.069087 118.449389 
L 184.642755 121.832745 
L 179.326629 125.384611 
L 174.126007 129.101447 
L 169.046075 132.979547 
L 164.091896 137.015045 
L 159.268407 141.20392 
L 154.580419 145.541995 
L 150.032602 150.024946 
L 145.629492 154.648304 
L 141.375476 159.407461 
L 137.274796 164.297673 
L 133.331539 169.314065 
L 129.549636 174.451637 
L 125.932857 179.705267 
L 122.484806 185.069718 
L 119.208922 190.539644 
L 116.108469 196.109591 
L 113.186539 201.774007 
L 110.446043 207.527246 
L 107.889714 213.363573 
L 105.5201 219.27717 
L 103.339562 225.262142 
L 101.350275 231.312524 
L 99.554222 237.422284 
L 97.953192 243.585332 
L 96.548782 249.795524 
L 95.342391 256.04667 
L 94.335223 262.332539 
L 93.528281 268.646864 
L 92.92237 274.983352 
L 92.518093 281.335686 
L 92.315854 287.697535 
L 92.315854 294.062555 
L 92.518093 300.424403 
L 92.92237 306.776738 
L 93.528281 313.113226 
L 94.335223 319.427551 
L 95.342391 325.71342 
L 96.548782 331.964566 
L 97.953192 338.174758 
L 99.554222 344.337806 
L 101.350275 350.447566 
L 103.339562 356.497948 
L 105.5201 362.48292 
L 107.889714 368.396517 
L 110.446043 374.232844 
L 113.186539 379.986083 
L 116.108469 385.650499 
L 119.208922 391.220446 
L 122.484806 396.690371 
L 125.932857 402.054823 
L 129.549636 407.308453 
L 133.331539 412.446025 
L 137.274796 417.462417 
L 141.375476 422.352629 
L 145.629492 427.111786 
L 150.032602 431.735144 
L 154.580419 436.218095 
L 159.268407 440.55617 
L 164.091896 444.745045 
L 169.046075 448.780543 
L 174.126007 452.658643 
L 179.326629 456.375478 
L 184.642755 459.927344 
L 190.069087 463.3107 
L 195.600215 466.522174 
L 201.230627 469.558563 
L 206.954709 472.416842 
L 212.766756 475.094161 
L 218.660974 477.587851 
L 224.631487 479.895427 
L 230.672345 482.014588 
L 236.777525 483.943223 
L 242.940941 485.679407 
L 249.15645 487.221412 
L 255.417857 488.567699 
L 261.718919 489.716927 
L 268.053355 490.667949 
L 274.414852 491.419819 
L 280.797067 491.971787 
L 287.19364 492.323301 
L 293.598193 492.474013 
L 300.004343 492.423772 
L 306.405703 492.172627 
L 312.795894 491.72083 
L 319.168544 491.06883 
L 325.517302 490.217277 
L 331.835838 489.167021 
L 338.117855 487.919108 
L 344.35709 486.474783 
L 350.547325 484.835484 
L 356.682387 483.002846 
L 362.756163 480.978696 
L 368.762597 478.765052 
L 374.695702 476.364119 
L 380.549564 473.778292 
L 386.318347 471.010149 
L 391.996301 468.062447 
L 397.577767 464.938126 
L 403.05718 461.640301 
L 408.429078 458.172258 
L 413.688107 454.537454 
L 418.829025 450.739513 
L 423.846706 446.782221 
L 428.736149 442.669522 
L 433.49248 438.405516 
L 438.110958 433.994453 
L 442.586979 429.440731 
L 446.916082 424.748889 
L 451.09395 419.923603 
L 455.11642 414.969683 
L 458.979481 409.892069 
L 462.679284 404.695821 
L 466.212139 399.386118 
L 469.574525 393.968255 
L 472.763091 388.447631 
L 475.774658 382.829749 
L 478.606224 377.12021 
L 481.254966 371.324705 
L 483.718245 365.44901 
L 485.993605 359.498984 
L 488.078777 353.480557 
L 489.971683 347.399729 
L 491.670436 341.26256 
L 493.173343 335.075169 
L 494.478906 328.843724 
L 495.585823 322.574435 
L 496.492991 316.273553 
L 497.199506 309.947358 
L 497.704663 303.602156 
L 498.007959 297.244272 
L 498.109091 290.880045 
L 498.109091 290.880045 
" clip-path="url(#p1248e5399f)" style="fill: none; stroke: #ff0000; stroke-width: 5; stroke-linecap: square"/>
   </g>
   <g id="line2d_2">
    <path d="M 151.70974 148.338644 
L 208.0364 204.582281 
" clip-path="url(#p1248e5399f)" style="fill: none; stroke: #000000; stroke-width: 3; stroke-linecap: square"/>
   </g>
   <g id="line2d_3">
    <path d="M 294.911164 89.28 
L 294.996655 192.853236 
" clip-path="url(#p1248e5399f)" style="fill: none; stroke: #000000; stroke-width: 3; stroke-linecap: square"/>
   </g>
   <g id="line2d_4">
    <path d="M 438.156854 147.810892 
L 382.057137 204.278314 
" clip-path="url(#p1248e5399f)" style="fill: none; stroke: #000000; stroke-width: 3; stroke-linecap: square"/>
   </g>
   <g id="line2d_5">
    <path d="M 151.196493 148.850493 
L 208.0364 204.582281 
" clip-path="url(#p1248e5399f)" style="fill: none; stroke: #000000; stroke-width: 3; stroke-linecap: square"/>
   </g>
   <g id="line2d_6">
    <path d="M 208.0364 204.582281 
L 294.996655 192.853236 
" clip-path="url(#p1248e5399f)" style="fill: none; stroke: #000000; stroke-width: 3; stroke-linecap: square"/>
   </g>
   <g id="line2d_7">
    <path d="M 208.0364 204.582281 
L 196.537929 291.065668 
" clip-path="url(#p1248e5399f)" style="fill: none; stroke: #000000; stroke-width: 3; stroke-linecap: square"/>
   </g>
   <g id="line2d_8">
    <path d="M 294.996655 192.853236 
L 382.057137 204.278314 
" clip-path="url(#p1248e5399f)" style="fill: none; stroke: #000000; stroke-width: 3; stroke-linecap: square"/>
   </g>
   <g id="line2d_9">
    <path d="M 294.996655 192.853236 
L 295.200118 290.897314 
" clip-path="url(#p1248e5399f)" style="fill: none; stroke: #000000; stroke-width: 3; stroke-linecap: square"/>
   </g>
   <g id="line2d_10">
    <path d="M 382.057137 204.278314 
L 438.669943 148.318795 
" clip-path="url(#p1248e5399f)" style="fill: none; stroke: #000000; stroke-width: 3; stroke-linecap: square"/>
   </g>
   <g id="line2d_11">
    <path d="M 382.057137 204.278314 
L 393.862498 290.728541 
" clip-path="url(#p1248e5399f)" style="fill: none; stroke: #000000; stroke-width: 3; stroke-linecap: square"/>
   </g>
   <g id="line2d_12">
    <path d="M 92.290909 291.248803 
L 196.537929 291.065668 
" clip-path="url(#p1248e5399f)" style="fill: none; stroke: #000000; stroke-width: 3; stroke-linecap: square"/>
   </g>
   <g id="line2d_13">
    <path d="M 196.537929 291.065668 
L 295.200118 290.897314 
" clip-path="url(#p1248e5399f)" style="fill: none; stroke: #000000; stroke-width: 3; stroke-linecap: square"/>
   </g>
   <g id="line2d_14">
    <path d="M 196.537929 291.065668 
L 208.347436 377.481289 
" clip-path="url(#p1248e5399f)" style="fill: none; stroke: #000000; stroke-width: 3; stroke-linecap: square"/>
   </g>
   <g id="line2d_15">
    <path d="M 295.200118 290.897314 
L 393.862498 290.728541 
" clip-path="url(#p1248e5399f)" style="fill: none; stroke: #000000; stroke-width: 3; stroke-linecap: square"/>
   </g>
   <g id="line2d_16">
    <path d="M 295.200118 290.897314 
L 295.375935 388.905277 
" clip-path="url(#p1248e5399f)" style="fill: none; stroke: #000000; stroke-width: 3; stroke-linecap: square"/>
   </g>
   <g id="line2d_17">
    <path d="M 393.862498 290.728541 
L 498.108518 290.401063 
" clip-path="url(#p1248e5399f)" style="fill: none; stroke: #000000; stroke-width: 3; stroke-linecap: square"/>
   </g>
   <g id="line2d_18">
    <path d="M 393.862498 290.728541 
L 382.366792 377.174159 
" clip-path="url(#p1248e5399f)" style="fill: none; stroke: #000000; stroke-width: 3; stroke-linecap: square"/>
   </g>
   <g id="line2d_19">
    <path d="M 151.732347 433.443907 
L 208.347436 377.481289 
" clip-path="url(#p1248e5399f)" style="fill: none; stroke: #000000; stroke-width: 3; stroke-linecap: square"/>
   </g>
   <g id="line2d_20">
    <path d="M 208.347436 377.481289 
L 295.375935 388.905277 
" clip-path="url(#p1248e5399f)" style="fill: none; stroke: #000000; stroke-width: 3; stroke-linecap: square"/>
   </g>
   <g id="line2d_21">
    <path d="M 208.347436 377.481289 
L 152.24704 433.953373 
" clip-path="url(#p1248e5399f)" style="fill: none; stroke: #000000; stroke-width: 3; stroke-linecap: square"/>
   </g>
   <g id="line2d_22">
    <path d="M 295.375935 388.905277 
L 382.366792 377.174159 
" clip-path="url(#p1248e5399f)" style="fill: none; stroke: #000000; stroke-width: 3; stroke-linecap: square"/>
   </g>
   <g id="line2d_23">
    <path d="M 295.375935 388.905277 
L 295.546208 492.48 
" clip-path="url(#p1248e5399f)" style="fill: none; stroke: #000000; stroke-width: 3; stroke-linecap: square"/>
   </g>
   <g id="line2d_24">
    <path d="M 382.366792 377.174159 
L 439.196254 432.916515 
" clip-path="url(#p1248e5399f)" style="fill: none; stroke: #000000; stroke-width: 3; stroke-linecap: square"/>
   </g>
   <g id="line2d_25">
    <path d="M 382.366792 377.174159 
L 438.688421 433.422935 
" clip-path="url(#p1248e5399f)" style="fill: none; stroke: #000000; stroke-width: 3; stroke-linecap: square"/>
   </g>
   <g id="PathCollection_1">
    <defs>
     <path id="mcc7c7713ce" d="M 0 8.660254 
C 2.296726 8.660254 4.499694 7.747755 6.123724 6.123724 
C 7.747755 4.499694 8.660254 2.296726 8.660254 0 
C 8.660254 -2.296726 7.747755 -4.499694 6.123724 -6.123724 
C 4.499694 -7.747755 2.296726 -8.660254 0 -8.660254 
C -2.296726 -8.660254 -4.499694 -7.747755 -6.123724 -6.123724 
C -7.747755 -4.499694 -8.660254 -2.296726 -8.660254 0 
C -8.660254 2.296726 -7.747755 4.499694 -6.123724 6.123724 
C -4.499694 7.747755 -2.296726 8.660254 0 8.660254 
z
" style="stroke: #dc143c"/>
    </defs>
    <g clip-path="url(#p1248e5399f)">
     <use xlink:href="#mcc7c7713ce" x="151.70974" y="148.338644" style="fill: #dc143c; stroke: #dc143c"/>
     <use xlink:href="#mcc7c7713ce" x="151.196493" y="148.850493" style="fill: #dc143c; stroke: #dc143c"/>
     <use xlink:href="#mcc7c7713ce" x="92.290909" y="291.248803" style="fill: #dc143c; stroke: #dc143c"/>
     <use xlink:href="#mcc7c7713ce" x="151.732347" y="433.443907" style="fill: #dc143c; stroke: #dc143c"/>
     <use xlink:href="#mcc7c7713ce" x="152.24704" y="433.953373" style="fill: #dc143c; stroke: #dc143c"/>
     <use xlink:href="#mcc7c7713ce" x="295.546208" y="492.48" style="fill: #dc143c; stroke: #dc143c"/>
     <use xlink:href="#mcc7c7713ce" x="438.688421" y="433.422935" style="fill: #dc143c; stroke: #dc143c"/>
     <use xlink:href="#mcc7c7713ce" x="439.196254" y="432.916515" style="fill: #dc143c; stroke: #dc143c"/>
     <use xlink:href="#mcc7c7713ce" x="498.108518" y="290.401063" style="fill: #dc143c; stroke: #dc143c"/>
     <use xlink:href="#mcc7c7713ce" x="438.669943" y="148.318795" style="fill: #dc143c; stroke: #dc143c"/>
     <use xlink:href="#mcc7c7713ce" x="438.156854" y="147.810892" style="fill: #dc143c; stroke: #dc143c"/>
     <use xlink:href="#mcc7c7713ce" x="294.911164" y="89.28" style="fill: #dc143c; stroke: #dc143c"/>
    </g>
   </g>
   <g id="PathCollection_2">
    <defs>
     <path id="m30e4e4591f" d="M 0 8.660254 
C 2.296726 8.660254 4.499694 7.747755 6.123724 6.123724 
C 7.747755 4.499694 8.660254 2.296726 8.660254 0 
C 8.660254 -2.296726 7.747755 -4.499694 6.123724 -6.123724 
C 4.499694 -7.747755 2.296726 -8.660254 0 -8.660254 
C -2.296726 -8.660254 -4.499694 -7.747755 -6.123724 -6.123724 
C -7.747755 -4.499694 -8.660254 -2.296726 -8.660254 0 
C -8.660254 2.296726 -7.747755 4.499694 -6.123724 6.123724 
C -4.499694 7.747755 -2.296726 8.660254 0 8.660254 
z
" style="stroke: #000000"/>
    </defs>
    <g clip-path="url(#p1248e5399f)">
     <use xlink:href="#m30e4e4591f" x="208.0364" y="204.582281" style="stroke: #000000"/>
     <use xlink:href="#m30e4e4591f" x="294.996655" y="192.853236" style="stroke: #000000"/>
     <use xlink:href="#m30e4e4591f" x="382.057137" y="204.278314" style="stroke: #000000"/>
     <use xlink:href="#m30e4e4591f" x="196.537929" y="291.065668" style="stroke: #000000"/>
     <use xlink:href="#m30e4e4591f" x="295.200118" y="290.897314" style="stroke: #000000"/>
     <use xlink:href="#m30e4e4591f" x="393.862498" y="290.728541" style="stroke: #000000"/>
     <use xlink:href="#m30e4e4591f" x="208.347436" y="377.481289" style="stroke: #000000"/>
     <use xlink:href="#m30e4e4591f" x="295.375935" y="388.905277" style="stroke: #000000"/>
     <use xlink:href="#m30e4e4591f" x="382.366792" y="377.174159" style="stroke: #000000"/>
    </g>
   </g>
   <g id="text_1">
    <!-- 0 -->
    <g transform="translate(158.473382 141.618636) scale(0.2 -0.2)">
     <defs>
      <path id="CMR17-30" d="M 2688 2025 
C 2688 2416 2682 3080 2413 3591 
C 2176 4039 1798 4198 1466 4198 
C 1158 4198 768 4058 525 3597 
C 269 3118 243 2524 243 2025 
C 243 1661 250 1106 448 619 
C 723 -39 1216 -128 1466 -128 
C 1760 -128 2208 -7 2470 600 
C 2662 1042 2688 1559 2688 2025 
z
M 1466 -26 
C 1056 -26 813 325 723 812 
C 653 1188 653 1738 653 2096 
C 653 2588 653 2997 736 3387 
C 858 3929 1216 4096 1466 4096 
C 1728 4096 2067 3923 2189 3400 
C 2272 3036 2278 2607 2278 2096 
C 2278 1680 2278 1169 2202 792 
C 2067 95 1690 -26 1466 -26 
z
" transform="scale(0.015625)"/>
     </defs>
     <use xlink:href="#CMR17-30" transform="scale(0.996264)"/>
    </g>
   </g>
   <g id="text_2">
    <!-- 3 -->
    <g transform="translate(185.014703 142.130485) scale(0.2 -0.2)">
     <defs>
      <path id="CMR17-33" d="M 1414 2157 
C 1984 2157 2234 1662 2234 1090 
C 2234 320 1824 25 1453 25 
C 1114 25 563 194 390 693 
C 422 680 454 680 486 680 
C 640 680 755 782 755 948 
C 755 1133 614 1216 486 1216 
C 378 1216 211 1165 211 926 
C 211 335 787 -128 1466 -128 
C 2176 -128 2720 430 2720 1085 
C 2720 1707 2208 2157 1600 2227 
C 2086 2328 2554 2756 2554 3329 
C 2554 3820 2048 4179 1472 4179 
C 890 4179 378 3829 378 3329 
C 378 3110 544 3072 627 3072 
C 762 3072 877 3155 877 3321 
C 877 3486 762 3569 627 3569 
C 602 3569 570 3569 544 3557 
C 730 3959 1235 4032 1459 4032 
C 1683 4032 2106 3925 2106 3320 
C 2106 3143 2080 2828 1862 2550 
C 1670 2304 1453 2304 1242 2284 
C 1210 2284 1062 2269 1037 2269 
C 992 2263 966 2257 966 2208 
C 966 2163 973 2157 1101 2157 
L 1414 2157 
z
" transform="scale(0.015625)"/>
     </defs>
     <use xlink:href="#CMR17-33" transform="scale(0.996264)"/>
    </g>
   </g>
   <g id="text_3">
    <!-- 8 -->
    <g transform="translate(99.054551 284.528795) scale(0.2 -0.2)">
     <defs>
      <path id="CMR17-38" d="M 1741 2264 
C 2144 2467 2554 2773 2554 3263 
C 2554 3841 1990 4179 1472 4179 
C 890 4179 378 3759 378 3180 
C 378 3021 416 2747 666 2505 
C 730 2442 998 2251 1171 2130 
C 883 1983 211 1634 211 934 
C 211 279 838 -128 1459 -128 
C 2144 -128 2720 362 2720 1010 
C 2720 1590 2330 1857 2074 2029 
L 1741 2264 
z
M 902 2822 
C 851 2854 595 3051 595 3351 
C 595 3739 998 4032 1459 4032 
C 1965 4032 2336 3676 2336 3262 
C 2336 2669 1670 2331 1638 2331 
C 1632 2331 1626 2331 1574 2370 
L 902 2822 
z
M 2080 1519 
C 2176 1449 2483 1240 2483 851 
C 2483 381 2010 25 1472 25 
C 890 25 448 438 448 940 
C 448 1443 838 1862 1280 2060 
L 2080 1519 
z
" transform="scale(0.015625)"/>
     </defs>
     <use xlink:href="#CMR17-38" transform="scale(0.996264)"/>
    </g>
   </g>
   <g id="text_4">
    <!-- 13 -->
    <g transform="translate(158.495989 426.723898) scale(0.2 -0.2)">
     <defs>
      <path id="CMR17-31" d="M 1702 4058 
C 1702 4192 1696 4192 1606 4192 
C 1357 3916 979 3827 621 3827 
C 602 3827 570 3827 563 3808 
C 557 3795 557 3782 557 3648 
C 755 3648 1088 3686 1344 3839 
L 1344 461 
C 1344 236 1331 160 781 160 
L 589 160 
L 589 0 
C 896 0 1216 0 1523 0 
C 1830 0 2150 0 2458 0 
L 2458 160 
L 2266 160 
C 1715 160 1702 230 1702 458 
L 1702 4058 
z
" transform="scale(0.015625)"/>
     </defs>
     <use xlink:href="#CMR17-31" transform="scale(0.996264)"/>
     <use xlink:href="#CMR17-33" transform="translate(45.690477 0) scale(0.996264)"/>
    </g>
   </g>
   <g id="text_5">
    <!-- 18 -->
    <g transform="translate(186.06525 427.233365) scale(0.2 -0.2)">
     <use xlink:href="#CMR17-31" transform="scale(0.996264)"/>
     <use xlink:href="#CMR17-38" transform="translate(45.690477 0) scale(0.996264)"/>
    </g>
   </g>
   <g id="text_6">
    <!-- 19 -->
    <g transform="translate(302.30985 485.759992) scale(0.2 -0.2)">
     <defs>
      <path id="CMR17-39" d="M 2253 1864 
C 2253 464 1670 31 1190 31 
C 1043 31 685 31 538 294 
C 704 268 826 357 826 518 
C 826 692 685 749 595 749 
C 538 749 365 723 365 506 
C 365 71 742 -128 1203 -128 
C 1939 -128 2688 674 2688 2073 
C 2688 3817 1971 4179 1485 4179 
C 851 4179 243 3628 243 2778 
C 243 1991 762 1408 1414 1408 
C 1952 1408 2189 1903 2253 2112 
L 2253 1864 
z
M 1427 1510 
C 1254 1510 1011 1542 813 1922 
C 678 2169 678 2461 678 2771 
C 678 3146 678 3405 858 3684 
C 947 3817 1114 4032 1485 4032 
C 2240 4032 2240 2885 2240 2632 
C 2240 2182 2035 1510 1427 1510 
z
" transform="scale(0.015625)"/>
     </defs>
     <use xlink:href="#CMR17-31" transform="scale(0.996264)"/>
     <use xlink:href="#CMR17-39" transform="translate(45.690477 0) scale(0.996264)"/>
    </g>
   </g>
   <g id="text_7">
    <!-- 20 -->
    <g transform="translate(445.452063 426.702927) scale(0.2 -0.2)">
     <defs>
      <path id="CMR17-32" d="M 2669 989 
L 2554 989 
C 2490 536 2438 459 2413 420 
C 2381 369 1920 369 1830 369 
L 602 369 
C 832 619 1280 1072 1824 1597 
C 2214 1967 2669 2402 2669 3035 
C 2669 3790 2067 4224 1395 4224 
C 691 4224 262 3604 262 3030 
C 262 2780 448 2748 525 2748 
C 589 2748 781 2787 781 3010 
C 781 3207 614 3264 525 3264 
C 486 3264 448 3258 422 3245 
C 544 3790 915 4058 1306 4058 
C 1862 4058 2227 3617 2227 3035 
C 2227 2479 1901 2000 1536 1584 
L 262 146 
L 262 0 
L 2515 0 
L 2669 989 
z
" transform="scale(0.015625)"/>
     </defs>
     <use xlink:href="#CMR17-32" transform="scale(0.996264)"/>
     <use xlink:href="#CMR17-30" transform="translate(45.690477 0) scale(0.996264)"/>
    </g>
   </g>
   <g id="text_8">
    <!-- 17 -->
    <g transform="translate(473.014464 426.196507) scale(0.2 -0.2)">
     <defs>
      <path id="CMR17-37" d="M 2886 3941 
L 2886 4081 
L 1382 4081 
C 634 4081 621 4165 595 4288 
L 480 4288 
L 294 3094 
L 410 3094 
C 429 3215 474 3540 550 3661 
C 589 3712 1062 3712 1171 3712 
L 2579 3712 
L 1869 2661 
C 1395 1954 1069 999 1069 165 
C 1069 89 1069 -128 1299 -128 
C 1530 -128 1530 89 1530 171 
L 1530 465 
C 1530 1508 1709 2196 2003 2636 
L 2886 3941 
z
" transform="scale(0.015625)"/>
     </defs>
     <use xlink:href="#CMR17-31" transform="scale(0.996264)"/>
     <use xlink:href="#CMR17-37" transform="translate(45.690477 0) scale(0.996264)"/>
    </g>
   </g>
   <g id="text_9">
    <!-- 12 -->
    <g transform="translate(504.87216 283.681054) scale(0.2 -0.2)">
     <use xlink:href="#CMR17-31" transform="scale(0.996264)"/>
     <use xlink:href="#CMR17-32" transform="translate(45.690477 0) scale(0.996264)"/>
    </g>
   </g>
   <g id="text_10">
    <!-- 7 -->
    <g transform="translate(445.433585 141.598786) scale(0.2 -0.2)">
     <use xlink:href="#CMR17-37" transform="scale(0.996264)"/>
    </g>
   </g>
   <g id="text_11">
    <!-- 2 -->
    <g transform="translate(471.975064 141.090884) scale(0.2 -0.2)">
     <use xlink:href="#CMR17-32" transform="scale(0.996264)"/>
    </g>
   </g>
   <g id="text_12">
    <!-- 1 -->
    <g transform="translate(301.674806 82.559992) scale(0.2 -0.2)">
     <use xlink:href="#CMR17-31" transform="scale(0.996264)"/>
    </g>
   </g>
   <g id="text_13">
    <!-- 4 -->
    <g transform="translate(214.800042 197.862273) scale(0.2 -0.2)">
     <defs>
      <path id="CMR17-34" d="M 2150 4122 
C 2150 4256 2144 4256 2029 4256 
L 128 1254 
L 128 1088 
L 1779 1088 
L 1779 457 
C 1779 224 1766 160 1318 160 
L 1197 160 
L 1197 0 
C 1402 0 1747 0 1965 0 
C 2182 0 2528 0 2733 0 
L 2733 160 
L 2611 160 
C 2163 160 2150 224 2150 457 
L 2150 1088 
L 2803 1088 
L 2803 1254 
L 2150 1254 
L 2150 4122 
z
M 1798 3703 
L 1798 1254 
L 256 1254 
L 1798 3703 
z
" transform="scale(0.015625)"/>
     </defs>
     <use xlink:href="#CMR17-34" transform="scale(0.996264)"/>
    </g>
   </g>
   <g id="text_14">
    <!-- 5 -->
    <g transform="translate(301.760297 186.133228) scale(0.2 -0.2)">
     <defs>
      <path id="CMR17-35" d="M 730 3692 
C 794 3666 1056 3584 1325 3584 
C 1920 3584 2246 3911 2432 4100 
C 2432 4157 2432 4192 2394 4192 
C 2387 4192 2374 4192 2323 4163 
C 2099 4058 1837 3973 1517 3973 
C 1325 3973 1037 3999 723 4139 
C 653 4171 640 4171 634 4171 
C 602 4171 595 4164 595 4037 
L 595 2203 
C 595 2089 595 2057 659 2057 
C 691 2057 704 2070 736 2114 
C 941 2401 1222 2522 1542 2522 
C 1766 2522 2246 2382 2246 1289 
C 2246 1085 2246 715 2054 421 
C 1894 159 1645 25 1370 25 
C 947 25 518 320 403 814 
C 429 807 480 795 506 795 
C 589 795 749 840 749 1038 
C 749 1210 627 1280 506 1280 
C 358 1280 262 1190 262 1011 
C 262 454 704 -128 1382 -128 
C 2042 -128 2669 440 2669 1264 
C 2669 2030 2170 2624 1549 2624 
C 1222 2624 947 2503 730 2274 
L 730 3692 
z
" transform="scale(0.015625)"/>
     </defs>
     <use xlink:href="#CMR17-35" transform="scale(0.996264)"/>
    </g>
   </g>
   <g id="text_15">
    <!-- 6 -->
    <g transform="translate(388.820779 197.558306) scale(0.2 -0.2)">
     <defs>
      <path id="CMR17-36" d="M 678 2176 
C 678 3690 1395 4032 1811 4032 
C 1946 4032 2272 4009 2400 3776 
C 2298 3776 2106 3776 2106 3553 
C 2106 3381 2246 3323 2336 3323 
C 2394 3323 2566 3348 2566 3560 
C 2566 3954 2246 4179 1805 4179 
C 1043 4179 243 3390 243 1984 
C 243 253 966 -128 1478 -128 
C 2099 -128 2688 427 2688 1283 
C 2688 2081 2170 2662 1517 2662 
C 1126 2662 838 2407 678 1960 
L 678 2176 
z
M 1478 25 
C 691 25 691 1200 691 1436 
C 691 1896 909 2560 1504 2560 
C 1613 2560 1926 2560 2138 2120 
C 2253 1870 2253 1609 2253 1289 
C 2253 944 2253 690 2118 434 
C 1978 171 1773 25 1478 25 
z
" transform="scale(0.015625)"/>
     </defs>
     <use xlink:href="#CMR17-36" transform="scale(0.996264)"/>
    </g>
   </g>
   <g id="text_16">
    <!-- 9 -->
    <g transform="translate(203.301571 284.34566) scale(0.2 -0.2)">
     <use xlink:href="#CMR17-39" transform="scale(0.996264)"/>
    </g>
   </g>
   <g id="text_17">
    <!-- 10 -->
    <g transform="translate(301.96376 284.177306) scale(0.2 -0.2)">
     <use xlink:href="#CMR17-31" transform="scale(0.996264)"/>
     <use xlink:href="#CMR17-30" transform="translate(45.690477 0) scale(0.996264)"/>
    </g>
   </g>
   <g id="text_18">
    <!-- 11 -->
    <g transform="translate(400.62614 284.008533) scale(0.2 -0.2)">
     <use xlink:href="#CMR17-31" transform="scale(0.996264)"/>
     <use xlink:href="#CMR17-31" transform="translate(45.690477 0) scale(0.996264)"/>
    </g>
   </g>
   <g id="text_19">
    <!-- 14 -->
    <g transform="translate(215.111078 370.761281) scale(0.2 -0.2)">
     <use xlink:href="#CMR17-31" transform="scale(0.996264)"/>
     <use xlink:href="#CMR17-34" transform="translate(45.690477 0) scale(0.996264)"/>
    </g>
   </g>
   <g id="text_20">
    <!-- 15 -->
    <g transform="translate(302.139577 382.185269) scale(0.2 -0.2)">
     <use xlink:href="#CMR17-31" transform="scale(0.996264)"/>
     <use xlink:href="#CMR17-35" transform="translate(45.690477 0) scale(0.996264)"/>
    </g>
   </g>
   <g id="text_21">
    <!-- 16 -->
    <g transform="translate(389.130434 370.454151) scale(0.2 -0.2)">
     <use xlink:href="#CMR17-31" transform="scale(0.996264)"/>
     <use xlink:href="#CMR17-36" transform="translate(45.690477 0) scale(0.996264)"/>
    </g>
   </g>
  </g>
 </g>
 <defs>
  <clipPath id="p1248e5399f">
   <rect x="72" y="69.12" width="446.4" height="443.52"/>
  </clipPath>
 </defs>
</svg>
